<svg version="1.2" xmlns="http://www.w3.org/2000/svg" viewBox="0 0 340 450" width="340" height="450">
	<title>hamravesh-logo</title>
	<style>
		.s0 { fill: #4c3faf } 
	</style>
	<path id="Layer" class="s0" d="m15.8 73.5l82.6 67.4c3 2.5 7.3 2 9.7-0.9 2.4-3 2-7.3-1-9.7l-82.6-67.4c-6.5-5.3-10.2-13.2-10.2-21.4 0-4.2 0.9-8 2.3-11.3 2.2-5 5.9-9.1 10.4-12 4.5-2.8 9.7-4.4 15.1-4.4 3 0 5.9 0.4 8.9 1.5 2.8 1 5.7 2.6 8.4 4.7l93 75.9c2.9 2.4 7.2 1.9 9.6-1 2.4-3 2-7.3-0.9-9.7l-93.1-75.7c-3.9-3.3-8.1-5.6-12.6-7.1-4.4-1.5-8.9-2.2-13.4-2.2-10.7 0-21 4.2-28.7 11.4-3.8 3.7-7.1 8.1-9.3 13.2-2.2 5-3.5 10.7-3.5 16.7v0.1c0.1 12.3 5.6 24 15.3 31.9zm316.5 151.5l-89.7-73.2c-2.9-2.4-7.2-1.9-9.6 1-2.5 3-2 7.3 0.9 9.7l76.8 62.6-79.4 64.8-79 64.4-92.8 75.7c-2.6 2.2-5.5 3.7-8.4 4.7-2.8 1-5.9 1.6-8.8 1.6-7.1 0-14.2-2.9-19.3-7.7-2.6-2.5-4.7-5.4-6.2-8.7-1.4-3.3-2.3-7.1-2.3-11.3 0-8.3 3.7-16.1 10.1-21.4l83.6-68.3 78-63.7 36.9-30.1-36-29.3c-3-2.5-7.3-2-9.7 0.9-2.4 3-1.9 7.3 1 9.7l23 18.7-23.9 19.5-78 63.7-83.6 68.3c-9.6 7.9-15.2 19.6-15.2 32 0 6.1 1.2 11.8 3.5 16.8 3.4 7.6 8.8 13.8 15.5 18 6.7 4.2 14.4 6.6 22.5 6.6 4.5 0 8.9-0.7 13.4-2.2 4.4-1.5 8.7-3.9 12.6-7.1l92.8-75.6 78.9-64.4zm3.6-200.5c-3.4-7.6-8.8-13.7-15.6-17.9-6.6-4.2-14.3-6.6-22.4-6.6-4.5 0-9 0.8-13.4 2.3-4.4 1.5-8.7 3.9-12.6 7l-90.2 73.7-81.5 66.5-92.5 75.5 90 73.4c2.9 2.4 7.2 2 9.6-1 2.4-2.9 2-7.2-1-9.6l-76.9-62.8 79.5-64.9 81.5-66.4 90.2-73.6c2.7-2.3 5.6-3.8 8.4-4.8 2.9-1 5.9-1.5 8.9-1.5 7.1 0 14.1 2.9 19.3 7.7 2.6 2.4 4.7 5.4 6.2 8.7 1.4 3.3 2.3 7 2.3 11.2 0 8.4-3.7 16.2-10.2 21.4l-82.5 67.4-79.1 64.4-37.2 30.4 36.6 29.8c2.9 2.5 7.2 2 9.6-0.9 2.5-3 2-7.3-0.9-9.7l-23.6-19.2 24.2-19.7 79-64.5 82.6-67.3c9.7-7.9 15.2-19.6 15.2-32.1 0-6-1.3-11.8-3.5-16.9zm-11.9 352.1l-82.3-67.2c-2.9-2.4-7.2-2-9.6 1-2.4 2.9-2 7.2 1 9.6l82.2 67.2c6.5 5.3 10.1 13.1 10.1 21.4 0 4.2-0.8 7.9-2.3 11.2-2.2 5.1-5.9 9.2-10.4 12-4.4 2.9-9.7 4.5-15.1 4.5-2.9 0-5.9-0.4-8.8-1.5-2.9-1-5.7-2.6-8.4-4.8l-93.1-76c-3-2.4-7.3-1.9-9.7 1-2.4 3-2 7.3 1 9.7l93.1 76c3.9 3.2 8.1 5.5 12.6 7.1 4.4 1.5 9 2.2 13.4 2.2 10.8 0 21-4.2 28.7-11.5 3.9-3.6 7.1-8 9.3-13.1 2.3-5.1 3.5-10.7 3.5-16.8 0-12.5-5.6-24.3-15.2-32z"/>
</svg>